<svg width="129" height="147" viewBox="0 0 129 147" fill="none" xmlns="http://www.w3.org/2000/svg">
<path d="M60.5 1.49999C62 0.666662 65.8 -0.500005 69 1.49999C69.2131 1.6332 69.4068 1.74497 69.5822 1.83707L126 34.5C127 35 129 36.9 129 40.5V63.5051C128.998 63.841 128.796 64.602 128 65L119.252 70.0645C116.658 70.6721 116 68.6315 116 67.5V45.5C116.167 44.8333 115.7 43.1 112.5 41.5L68 15.5C67 14.6667 64.3 13.5 61.5 15.5L16 42C15.1953 42.4828 13.6134 44.178 13.5058 47.1755C13.5039 48.617 13.5 50.7 13.5 47.5V101C13.3333 101.5 13.7 102.9 16.5 104.5L49.596 123.99L49.5 124L62 131.5H62.0679C63.0905 132.168 65.1026 132.61 68 131L114 104.5C114.667 104.333 116 102.9 116 98.5V85.495C116.005 83.8964 118.335 82.166 119.5 81.5L125 78C126 77.1667 128.2 76.1 129 78.5V106.5C129 106.503 129 106.506 129 106.509C128.997 107.532 128.46 109.736 126.468 111.341C126.177 111.558 125.856 111.778 125.5 112C125.431 112.039 125.366 112.08 125.304 112.121C121.061 114.721 86.1959 135.01 69 145C67.8333 145.833 64.5 147 60.5 145C56.5 143 22.5 123.167 5.99999 113.5C4.16666 112.5 0.599989 109.4 0.999989 105V39C0.999993 37.6667 2 34.6 6 33L60.5 1.49999Z" fill="white"/>
<path d="M26.5 62L33.3072 66.5381C33.8652 66.9871 34.5308 67.6729 35.0614 68.5956C35.3129 69.1541 35.499 69.8057 35.5 70.4946V90L62 105.5C64.4 107.1 67 106.167 68 105.5L94 90V56L68.5 71C65.3 73 62.5 71.8333 61.5 71L28 51C25.2 49 26.8333 47.1667 28 46.5L62 26.5C65.2 24.9 67.6667 25.8333 68.5 26.5L80.5 34C83.7 35.6 82.5 37 81.5 37.5L75 41C72.2 42.6 70.8333 42.3333 70.5 42L67.5 40.5C65.5 38.9 63 40.1667 62 41L52 46.5C51.7754 46.6283 51.573 46.7554 51.3908 46.8807L48 49L56.8889 53.8889L62 57C64.4 59 66.6667 57.8333 67.5 57L92 43C93.6 41.8 95.6667 42.5 96.5 43L103.5 47.5C104.5 48 106 49 106 51V94.5106C105.997 96.8701 104.906 98.4671 103.933 99.3417C93.2324 105.791 72.0364 118.428 68.5 120C64.9 121.6 62.3333 120.667 61.5 120C50.5 113.5 27.9 100.1 25.5 98.5C23.1 96.9 22.8333 95.1667 23 94.5V63.5C23 60.7 25.3333 61.3333 26.5 62Z" fill="white"/>
</svg>
